<?xml version="1.0" encoding="utf-8"?>
<!-- Generator: Adobe Illustrator 23.0.3, SVG Export Plug-In . SVG Version: 6.00 Build 0)  -->
<svg version="1.1" id="Layer_1" xmlns="http://www.w3.org/2000/svg" xmlns:xlink="http://www.w3.org/1999/xlink" x="0px" y="0px"
	 viewBox="0 0 48.1 18.1" style="enable-background:new 0 0 48.1 18.1;" xml:space="preserve">
<style type="text/css">
	.st0{fill:none;}
</style>
<title>Asset 24watch</title>
<g>
	<path class="st0" d="M2.9,8.1C2.4,8.1,2,8.5,2,9s0.4,0.9,0.9,0.9h2V8.1H2.9z"/>
	<path class="st0" d="M8.7,8.1v-2V2.9C8.7,2.4,8.3,2,7.8,2C7.3,2,6.9,2.4,6.9,2.9v3.2v2v1.8v2v3.2c0,0.5,0.4,0.9,0.9,0.9
		c0.5,0,0.9-0.4,0.9-0.9V12v-2V8.1z"/>
	<rect x="10.7" y="8.1" class="st0" width="26.6" height="1.8"/>
	<path class="st0" d="M41.1,8.1v-2V2.9c0-0.5-0.4-0.9-0.9-0.9c-0.5,0-0.9,0.4-0.9,0.9v3.2v2v1.8v2v3.2c0,0.5,0.4,0.9,0.9,0.9
		c0.5,0,0.9-0.4,0.9-0.9V12v-2V8.1z"/>
	<path class="st0" d="M45.2,8.1h-2v1.8h2C45.6,9.9,46,9.5,46,9S45.6,8.1,45.2,8.1z"/>
	<path d="M45.2,6.1h-2V2.9c0-1.6-1.3-2.9-2.9-2.9c-1.6,0-2.9,1.3-2.9,2.9v3.2H10.7V2.9C10.7,1.3,9.4,0,7.8,0C6.2,0,4.9,1.3,4.9,2.9
		v3.2h-2C1.3,6.1,0,7.4,0,9C0,10.6,1.3,12,2.9,12h2v3.2c0,1.6,1.3,2.9,2.9,2.9c1.6,0,2.9-1.3,2.9-2.9V12h26.6v3.2
		c0,1.6,1.3,2.9,2.9,2.9c1.6,0,2.9-1.3,2.9-2.9V12h2c1.6,0,2.9-1.3,2.9-2.9C48.1,7.4,46.8,6.1,45.2,6.1z M2.9,9.9C2.4,9.9,2,9.5,2,9
		s0.4-0.9,0.9-0.9h2v1.8H2.9z M8.7,15.2c0,0.5-0.4,0.9-0.9,0.9c-0.5,0-0.9-0.4-0.9-0.9V12v-2V8.1v-2V2.9C6.9,2.4,7.3,2,7.8,2
		c0.5,0,0.9,0.4,0.9,0.9v3.2v2v1.8v2V15.2z M10.7,9.9V8.1h26.6v1.8H10.7z M41.1,15.2c0,0.5-0.4,0.9-0.9,0.9c-0.5,0-0.9-0.4-0.9-0.9
		V12v-2V8.1v-2V2.9c0-0.5,0.4-0.9,0.9-0.9c0.5,0,0.9,0.4,0.9,0.9v3.2v2v1.8v2V15.2z M45.2,9.9h-2V8.1h2C45.6,8.1,46,8.5,46,9
		S45.6,9.9,45.2,9.9z"/>
</g>
</svg>
