<svg xmlns="http://www.w3.org/2000/svg" viewBox="0 0 66.07 66"><defs><style>.cls-1{fill:#757679;}</style></defs><title>Asset 28</title><g id="Layer_2" data-name="Layer 2"><g id="Layer_1-2" data-name="Layer 1"><path class="cls-1" d="M63.47,25a2.28,2.28,0,0,0-2.24,2.31V55c0,4.41-4.25,6.43-6.26,6.43H10.72c-2.82,0-5.75-2.86-6.26-8.17V11.05c0-6.6,4.68-6.44,6.26-6.44H40.2A2.27,2.27,0,0,0,42.43,2.3,2.27,2.27,0,0,0,40.2,0H10.38C6.53,0,0,2.48,0,9V53.57C0,62.29,5.32,66,10.38,66H55.31C61,66,65.7,62.34,65.7,55.3v-28A2.28,2.28,0,0,0,63.47,25M22.09,46.86l1.69-6.39,4.5,4.64-6.19,1.75m4.26-9.77L49.7,13l5.21,5.47L31.6,42.51l-5.25-5.42M61.42,11.71,58.2,15,53,9.57l3.17-3.28a1.48,1.48,0,0,1,2.05.15l3,3.17a1.74,1.74,0,0,1,.51,1.2,1.34,1.34,0,0,1-.35.9M20.59,36.56a.69.69,0,0,0-.1.19L17.16,49.34a2.24,2.24,0,0,0,.53,2.08,2.08,2.08,0,0,0,1.47.61A2,2,0,0,0,19.7,52l12.1-3.41s0,0,0,0a.49.49,0,0,0,.38-.16L64.58,15a5.44,5.44,0,0,0,1.49-3.82,6.65,6.65,0,0,0-1.88-4.58L61.13,3.43A6.25,6.25,0,0,0,56.7,1.48,5.1,5.1,0,0,0,53,3L20.64,36.45s0,.07-.05.11"/></g></g></svg>