<?xml version="1.0" encoding="utf-8"?>
<!-- Generator: Adobe Illustrator 23.0.3, SVG Export Plug-In . SVG Version: 6.00 Build 0)  -->
<svg version="1.1" id="Layer_1" xmlns="http://www.w3.org/2000/svg" xmlns:xlink="http://www.w3.org/1999/xlink" x="0px" y="0px"
	 viewBox="0 0 48.1 28.1" style="enable-background:new 0 0 48.1 28.1;" xml:space="preserve">
<style type="text/css">
	.st0{fill:none;}
</style>
<g>
	<path class="st0" d="M13,13.1v-2V4.9C13,4.4,12.6,4,12.2,4c-0.5,0-0.9,0.4-0.9,0.9v6.2v2v1.8v2v6.2c0,0.5,0.4,0.9,0.9,0.9
		c0.5,0,0.9-0.4,0.9-0.9V17v-2V13.1z"/>
	<path class="st0" d="M8.7,13.1v-2V7.9C8.7,7.4,8.3,7,7.8,7C7.3,7,6.9,7.4,6.9,7.9v3.2v2v1.8v2v3.2c0,0.5,0.4,0.9,0.9,0.9
		c0.5,0,0.9-0.4,0.9-0.9V17v-2V13.1z"/>
	<path class="st0" d="M2.9,13.1C2.4,13.1,2,13.5,2,14s0.4,0.9,0.9,0.9h2v-1.8H2.9z"/>
	<rect x="19.4" y="13.1" class="st0" width="9.3" height="1.8"/>
	<path class="st0" d="M17.4,13.1v-2V2.9C17.4,2.4,17,2,16.5,2c-0.5,0-0.9,0.4-0.9,0.9v8.2v2v1.8v2v8.2c0,0.5,0.4,0.9,0.9,0.9
		c0.5,0,0.9-0.4,0.9-0.9V17v-2V13.1z"/>
	<path class="st0" d="M32.5,13.1v-2V2.9c0-0.5-0.4-0.9-0.9-0.9c-0.5,0-0.9,0.4-0.9,0.9v8.2v2v1.8v2v8.2c0,0.5,0.4,0.9,0.9,0.9
		c0.5,0,0.9-0.4,0.9-0.9V17v-2V13.1z"/>
	<path class="st0" d="M45.2,13.1h-2v1.8h2c0.5,0,0.9-0.4,0.9-0.9S45.6,13.1,45.2,13.1z"/>
	<path class="st0" d="M41.1,13.1v-2V7.9c0-0.5-0.4-0.9-0.9-0.9c-0.5,0-0.9,0.4-0.9,0.9v3.2v2v1.8v2v3.2c0,0.5,0.4,0.9,0.9,0.9
		c0.5,0,0.9-0.4,0.9-0.9V17v-2V13.1z"/>
	<path class="st0" d="M36.8,13.1v-2V4.9c0-0.5-0.4-0.9-0.9-0.9C35.4,4,35,4.4,35,4.9v6.2v2v1.8v2v6.2c0,0.5,0.4,0.9,0.9,0.9
		c0.5,0,0.9-0.4,0.9-0.9V17v-2V13.1z"/>
	<path d="M45.2,11.1h-2V7.9c0-1.6-1.3-2.9-2.9-2.9c-0.5,0-1,0.1-1.4,0.4V4.9c0-1.6-1.3-2.9-2.9-2.9c-0.5,0-1,0.2-1.5,0.4
		C34.2,1,33,0,31.6,0c-1.6,0-2.9,1.3-2.9,2.9v8.2h-9.3V2.9c0-1.6-1.3-2.9-2.9-2.9c-1.4,0-2.6,1-2.9,2.4C13.2,2.2,12.7,2,12.2,2
		c-1.6,0-2.9,1.3-2.9,2.9v0.5C8.8,5.1,8.3,5,7.8,5C6.2,5,4.9,6.3,4.9,7.9v3.2h-2C1.3,11.1,0,12.4,0,14C0,15.6,1.3,17,2.9,17h2v3.2
		c0,1.6,1.3,2.9,2.9,2.9c0.5,0,1-0.1,1.4-0.4v0.5c0,1.6,1.3,2.9,2.9,2.9c0.5,0,1-0.2,1.5-0.4c0.2,1.4,1.4,2.4,2.9,2.4
		c1.6,0,2.9-1.3,2.9-2.9V17h9.3v8.2c0,1.6,1.3,2.9,2.9,2.9c1.4,0,2.6-1,2.9-2.4c0.4,0.3,0.9,0.4,1.5,0.4c1.6,0,2.9-1.3,2.9-2.9v-0.5
		c0.4,0.2,0.9,0.4,1.4,0.4c1.6,0,2.9-1.3,2.9-2.9V17h2c1.6,0,2.9-1.3,2.9-2.9C48.1,12.4,46.8,11.1,45.2,11.1z M2.9,14.9
		C2.4,14.9,2,14.5,2,14s0.4-0.9,0.9-0.9h2v1.8H2.9z M8.7,20.2c0,0.5-0.4,0.9-0.9,0.9c-0.5,0-0.9-0.4-0.9-0.9V17v-2v-1.8v-2V7.9
		C6.9,7.4,7.3,7,7.8,7c0.5,0,0.9,0.4,0.9,0.9v3.2v2v1.8v2V20.2z M13,23.2c0,0.5-0.4,0.9-0.9,0.9c-0.5,0-0.9-0.4-0.9-0.9V17v-2v-1.8
		v-2V4.9c0-0.5,0.4-0.9,0.9-0.9C12.6,4,13,4.4,13,4.9v6.2v2v1.8v2V23.2z M17.4,25.2c0,0.5-0.4,0.9-0.9,0.9c-0.5,0-0.9-0.4-0.9-0.9
		V17v-2v-1.8v-2V2.9C15.6,2.4,16,2,16.5,2c0.5,0,0.9,0.4,0.9,0.9v8.2v2v1.8v2V25.2z M19.4,14.9v-1.8h9.3v1.8H19.4z M32.5,25.2
		c0,0.5-0.4,0.9-0.9,0.9c-0.5,0-0.9-0.4-0.9-0.9V17v-2v-1.8v-2V2.9c0-0.5,0.4-0.9,0.9-0.9c0.5,0,0.9,0.4,0.9,0.9v8.2v2v1.8v2V25.2z
		 M36.8,23.2c0,0.5-0.4,0.9-0.9,0.9c-0.5,0-0.9-0.4-0.9-0.9V17v-2v-1.8v-2V4.9C35,4.4,35.4,4,35.9,4c0.5,0,0.9,0.4,0.9,0.9v6.2v2
		v1.8v2V23.2z M41.1,20.2c0,0.5-0.4,0.9-0.9,0.9c-0.5,0-0.9-0.4-0.9-0.9V17v-2v-1.8v-2V7.9c0-0.5,0.4-0.9,0.9-0.9
		c0.5,0,0.9,0.4,0.9,0.9v3.2v2v1.8v2V20.2z M45.2,14.9h-2v-1.8h2c0.5,0,0.9,0.4,0.9,0.9S45.6,14.9,45.2,14.9z"/>
</g>
</svg>
