<?xml version="1.0" encoding="utf-8"?>
<!-- Generator: Adobe Illustrator 23.0.3, SVG Export Plug-In . SVG Version: 6.00 Build 0)  -->
<svg version="1.1" id="Layer_1" xmlns="http://www.w3.org/2000/svg" xmlns:xlink="http://www.w3.org/1999/xlink" x="0px" y="0px"
	 viewBox="0 0 48.1 24.1" style="enable-background:new 0 0 48.1 24.1;" xml:space="preserve">
<style type="text/css">
	.st0{fill:none;}
</style>
<title>Asset 23watch</title>
<g>
	<path class="st0" d="M13,11.1v-2V2.9C13,2.4,12.6,2,12.2,2c-0.5,0-0.9,0.4-0.9,0.9v6.2v2v1.8v2v6.2c0,0.5,0.4,0.9,0.9,0.9
		c0.5,0,0.9-0.4,0.9-0.9V15v-2V11.1z"/>
	<path class="st0" d="M8.7,11.1v-2V5.9C8.7,5.4,8.3,5,7.8,5C7.3,5,6.9,5.4,6.9,5.9v3.2v2v1.8v2v3.2c0,0.5,0.4,0.9,0.9,0.9
		c0.5,0,0.9-0.4,0.9-0.9V15v-2V11.1z"/>
	<path class="st0" d="M2.9,11.1C2.4,11.1,2,11.5,2,12s0.4,0.9,0.9,0.9h2v-1.8H2.9z"/>
	<rect x="15.1" y="11.1" class="st0" width="17.9" height="1.8"/>
	<path class="st0" d="M36.8,11.1v-2V2.9c0-0.5-0.4-0.9-0.9-0.9C35.4,2,35,2.4,35,2.9v6.2v2v1.8v2v6.2c0,0.5,0.4,0.9,0.9,0.9
		c0.5,0,0.9-0.4,0.9-0.9V15v-2V11.1z"/>
	<path class="st0" d="M45.2,11.1h-2v1.8h2c0.5,0,0.9-0.4,0.9-0.9S45.6,11.1,45.2,11.1z"/>
	<path class="st0" d="M41.1,11.1v-2V5.9c0-0.5-0.4-0.9-0.9-0.9c-0.5,0-0.9,0.4-0.9,0.9v3.2v2v1.8v2v3.2c0,0.5,0.4,0.9,0.9,0.9
		c0.5,0,0.9-0.4,0.9-0.9V15v-2V11.1z"/>
	<path d="M45.2,9.1h-2V5.9c0-1.6-1.3-2.9-2.9-2.9c-0.5,0-1,0.1-1.4,0.4V2.9c0-1.6-1.3-2.9-2.9-2.9C34.3,0,33,1.3,33,2.9v6.2H15.1
		V2.9c0-1.6-1.3-2.9-2.9-2.9c-1.6,0-2.9,1.3-2.9,2.9v0.5C8.8,3.1,8.3,3,7.8,3C6.2,3,4.9,4.3,4.9,5.9v3.2h-2C1.3,9.1,0,10.4,0,12
		S1.3,15,2.9,15h2v3.2c0,1.6,1.3,2.9,2.9,2.9c0.5,0,1-0.1,1.4-0.4v0.5c0,1.6,1.3,2.9,2.9,2.9c1.6,0,2.9-1.3,2.9-2.9V15H33v6.2
		c0,1.6,1.3,2.9,2.9,2.9c1.6,0,2.9-1.3,2.9-2.9v-0.5c0.4,0.2,0.9,0.4,1.4,0.4c1.6,0,2.9-1.3,2.9-2.9V15h2c1.6,0,2.9-1.3,2.9-2.9
		S46.8,9.1,45.2,9.1z M2.9,12.9C2.4,12.9,2,12.5,2,12s0.4-0.9,0.9-0.9h2v1.8H2.9z M8.7,18.2c0,0.5-0.4,0.9-0.9,0.9
		c-0.5,0-0.9-0.4-0.9-0.9V15v-2v-1.8v-2V5.9C6.9,5.4,7.3,5,7.8,5c0.5,0,0.9,0.4,0.9,0.9v3.2v2v1.8v2V18.2z M13,21.2
		c0,0.5-0.4,0.9-0.9,0.9c-0.5,0-0.9-0.4-0.9-0.9V15v-2v-1.8v-2V2.9c0-0.5,0.4-0.9,0.9-0.9C12.6,2,13,2.4,13,2.9v6.2v2v1.8v2V21.2z
		 M15.1,12.9v-1.8H33v1.8H15.1z M36.8,21.2c0,0.5-0.4,0.9-0.9,0.9c-0.5,0-0.9-0.4-0.9-0.9V15v-2v-1.8v-2V2.9C35,2.4,35.4,2,35.9,2
		c0.5,0,0.9,0.4,0.9,0.9v6.2v2v1.8v2V21.2z M41.1,18.2c0,0.5-0.4,0.9-0.9,0.9c-0.5,0-0.9-0.4-0.9-0.9V15v-2v-1.8v-2V5.9
		c0-0.5,0.4-0.9,0.9-0.9c0.5,0,0.9,0.4,0.9,0.9v3.2v2v1.8v2V18.2z M45.2,12.9h-2v-1.8h2c0.5,0,0.9,0.4,0.9,0.9S45.6,12.9,45.2,12.9z
		"/>
</g>
</svg>
