<svg xmlns="http://www.w3.org/2000/svg" viewBox="0 0 735.78 403.62"><defs><style>.cls-1{fill:#fff;}</style></defs><title>Asset 17watch</title><g id="Layer_2" data-name="Layer 2"><g id="Layer_1-2" data-name="Layer 1"><path class="cls-1" d="M80.46,297c-.45-11.14-3.58-16.31-12-19.75l-15-6.09c-2.89-1.23-4.66-2.37-4.89-7.92l-.62-15.2c-.22-5.55,1.81-8.9,6.58-10.86l2.11-.86c1.44-.59,3.38-1.15,4.48-.45s1.52,2.31,1.62,4.9l1,24.58,14.9-6.12-.93-22.89c-.33-8.24-2.47-13.51-6.53-16.12-3.79-2.43-9.11-2.26-15.82.49l-3,1.24c-13.65,5.6-20.25,16.38-19.61,32l.59,14.5c.38,9.43,2.52,16,12,19.75l15.19,6.2c2.8,1.19,4.52,2.32,4.75,8L66,320.55c.22,5.55-1.81,8.89-6.59,10.86l-2.4,1c-1.44.59-3.39,1.14-4.48.44s-1.52-2.31-1.62-4.9l-1.15-28.2-14.9,6.12,1.08,26.5c.33,8.25,2.47,13.53,6.53,16.13a11.43,11.43,0,0,0,6.32,1.71,25.57,25.57,0,0,0,9.5-2.2l3.31-1.36c13.65-5.61,20.25-16.38,19.61-32Z"/><polygon class="cls-1" points="150.9 271.23 139.2 187.33 124.32 193.44 119.46 284.11 108.28 200.03 93.14 206.24 111.33 325.15 129.8 317.57 133.73 242.83 143.76 311.83 162.23 304.25 170.3 174.55 155.25 180.74 150.9 271.23"/><polygon class="cls-1" points="208.14 268.9 206.55 229.69 226.82 221.36 226.17 205.32 205.89 213.65 204.4 177.03 225.43 168.4 224.77 152.18 188.54 167.06 193.6 291.36 230.13 276.36 229.47 260.14 208.14 268.9"/><polygon class="cls-1" points="263.45 246.18 261.85 206.97 282.13 198.65 281.48 182.6 261.2 190.93 259.71 154.32 280.74 145.68 280.08 129.46 243.85 144.34 248.91 268.64 285.44 253.64 284.78 237.42 263.45 246.18"/><polygon class="cls-1" points="340.94 104.46 294.2 123.66 294.86 139.88 310.63 133.4 315.03 241.49 330.23 235.24 325.83 127.16 341.6 120.68 340.94 104.46"/><path class="cls-1" d="M408.45,269.45c.34,8.39,2.5,13.74,6.61,16.37a11.57,11.57,0,0,0,6.39,1.73,26,26,0,0,0,9.66-2.24l4.51-1.85c13.65-5.61,20.25-16.38,19.61-32l-1.83-45.12-24.66,10.13.65,16,9.76-4,1.17,28.59c.22,5.55-1.81,8.9-6.59,10.86l-3.9,1.61c-1.45.59-3.39,1.14-4.49.44-.95-.61-1.51-2.3-1.62-4.89l-3.23-79.42c-.23-5.55,1.81-8.9,6.59-10.86l3.61-1.48c1.44-.59,3.38-1.15,4.48-.45.95.62,1.51,2.31,1.61,4.9l.79,19.23,14.9-6.12-.72-17.71c-.34-8.25-2.47-13.52-6.53-16.12-3.79-2.43-9.12-2.27-15.83.49l-4.51,1.85c-13.65,5.61-20.25,16.38-19.61,32Z"/><path class="cls-1" d="M488.14,240.3l16.59-6.82,3.38,19.15,14.94-6.13L501.3,128.7l-18.08,7.43L471.61,267.62l14.95-6.14Zm1.28-16.66,4.19-54.75,8.55,49.52Z"/><polygon class="cls-1" points="555.36 233.22 550.31 108.92 535.11 115.17 540.16 239.47 555.36 233.22"/><polygon class="cls-1" points="590.37 218.84 587.08 138.01 606.54 212.2 624.32 204.9 619.26 80.6 604.67 86.6 607.65 160 590 92.62 570.72 100.54 575.77 224.84 590.37 218.84"/><path class="cls-1" d="M640.61,109.5c.38,9.43,2.52,16,12,19.74l15.21,6.2c2.79,1.2,4.51,2.33,4.74,8l.74,18.13c.22,5.55-1.81,8.9-6.59,10.86l-2.41,1c-1.43.59-3.38,1.15-4.48.44-.95-.61-1.51-2.3-1.61-4.89L657,140.75l-14.9,6.12,1.08,26.51c.33,8.25,2.47,13.52,6.53,16.12a11.43,11.43,0,0,0,6.32,1.71,25.42,25.42,0,0,0,9.5-2.2l3.3-1.35c13.65-5.61,20.25-16.39,19.62-32L687.76,138c-.45-11.14-3.59-16.3-12-19.74l-15-6.1c-2.89-1.22-4.67-2.37-4.89-7.92l-.62-15.2c-.23-5.54,1.81-8.89,6.59-10.86l2.1-.86c1.43-.59,3.38-1.15,4.48-.44s1.51,2.3,1.62,4.89l1,24.59,14.9-6.12L685,77.37c-.34-8.25-2.47-13.52-6.53-16.12-3.79-2.43-9.12-2.27-15.83.49l-3,1.23C646,68.58,639.38,79.35,640,95Z"/><path class="cls-1" d="M735.78,195.13,727.84,0,373.48,145.55l-3.62-89L0,208.49,7.94,403.62,362.29,258.08l3.62,89ZM712.62,23.73l6.54,160.74-338,138.85-6.54-160.75ZM23.16,379.89,16.62,219.15l338-138.84,6.54,160.74Z"/></g></g></svg>