<svg xmlns="http://www.w3.org/2000/svg" xmlns:xlink="http://www.w3.org/1999/xlink" version="1.1" x="0px" y="0px" viewBox="0 0 55 68.75" style="enable-background:new 0 0 55 55;" xml:space="preserve"><g><g><path d="M48.5,24.4998913h-1.8500977v-3.0498047c0-1.9968834-1.9702148-3.5393639-4-2.8157349v-0.1344604    c0-3.9703884-6-3.9663916-6,0v6H18.3598633v-6c0-3.9703884-6-3.9663916-6,0v0.1344604    c-2.0233212-0.7213249-4,0.8122616-4,2.8157349v3.0498047H6.5c-3.9703879,0-3.9663911,6,0,6h1.8598633v3.0595684    c0,1.9927559,1.9667864,3.540535,4,2.8157959v0.1246338c0,3.9682198,6,3.9691467,6,0v-5.9999981h18.2900391v5.9999981    c0,3.9682198,6,3.9691467,6,0v-0.1247559c2.0233231,0.7213249,4-0.8122025,4-2.8156738v-3.0595684H48.5    C52.4703865,30.4998913,52.4663925,24.4998913,48.5,24.4998913z M8.3598633,28.4998913H6.5c-1.3232012,0-1.3226438-2,0-2    h1.8598633V28.4998913z M12.3598633,33.5594597c0,1.3230934-2,1.3227234-2,0c0-4.4978447,0-7.6143589,0-12.1093731    c0-1.3228931,2-1.322731,2,0V33.5594597z M16.3598633,36.4998894c0,1.3230934-2,1.3227234-2,0    c0-5.3143406,0-12.6837444,0-17.9999981c0-1.3228931,2-1.322731,2,0    C16.3598633,24.5087852,16.3598633,29.941658,16.3598633,36.4998894z M36.6499023,28.4998913H18.3598633v-2h18.2900391V28.4998913    z M40.6499023,36.4998894c0,1.3230934-2,1.3227234-2,0c0-6.024498,0-11.3422928,0-17.9999981c0-1.3228931,2-1.322731,2,0    C40.6499023,23.816185,40.6499023,31.1855583,40.6499023,36.4998894z M44.6499023,29.4998913v4.0595684    c0,1.3230934-2,1.3227234-2,0V21.4500866c0-1.3230934,2-1.3227234,2,0    C44.6499023,21.5724831,44.6499023,29.8344898,44.6499023,29.4998913z M46.6499023,28.4998913v-2    c0.7850838,0.1234722,2.8500977-0.4742241,2.8500977,1C49.5,28.9783974,47.4340248,28.3765697,46.6499023,28.4998913z"/></g></g><text x="0" y="70" fill="#000000" font-size="5px" font-weight="bold" font-family="'Helvetica Neue', Helvetica, Arial-Unicode, Arial, Sans-serif">Created by Dinosoft Labs</text><text x="0" y="75" fill="#000000" font-size="5px" font-weight="bold" font-family="'Helvetica Neue', Helvetica, Arial-Unicode, Arial, Sans-serif">from the Noun Project</text></svg>